<?xml version="1.0" encoding="UTF-8"?>
<svg xmlns="http://www.w3.org/2000/svg" xmlns:xlink="http://www.w3.org/1999/xlink" version="1.1" id="Layer_1" x="0px" y="0px" viewBox="0 0 64 64" style="enable-background:new 0 0 64 64;" xml:space="preserve">
<style type="text/css">
	.st0{fill:#0066B3;}
</style>
<g>
	<path class="st0" d="M50.1,28.8v10.6h-3.8v-3.8H17.7v3.8h-3.8V28.8H8.5v3.8H4.7v3.8h3.8v3.8h5.4v-7.6h36.1v7.6h5.4v-3.8h3.8v-3.8   h-3.8v-3.8H50.1z"/>
	<path class="st0" d="M24,24l2.9-3.2l2.9,3.2l-2.9-9.1L24,24z M28,24.9l3.8-0.8l1.5,3.8l1.7-9.5L28,24.9z M34.1,24.9l3.8,0.8   l-7-6.6l1.7,9.5L34.1,24.9z M38.8,26.5l3.2,2.2l-8.7-2.9l6,7.3L38.8,26.5z M42.6,29.4l2.1,3.3l-8.5,1.2l8.9,2.6L42.6,29.4z    M44.6,33.7l0.6,3.9l-7-5.3l10,6.7L44.6,33.7z M45,38.5v4l-4.4-8l9.6,9.5L45,38.5z M44.6,43.3l-0.9,3.8l-1.3-9.4l7.7,11.1   L44.6,43.3z M43.1,47.9l-1.8,3.5l1.9-9.3l5.1,11.9L43.1,47.9z M40.7,52l-2.5,2.9l4.9-8.4l2.2,11.8L40.7,52z M37.6,55.5l-3.2,2   7.4-6.8l-0.9,11L37.6,55.5z M33.8,58l-3.8,0.9l9.2-4.5l-3.9,9.5L33.8,58z M29.4,59.1l-3.8-0.3l10.3-1.8l-6.5,7.2L29.4,59.1z    M25.2,58.7l-3.6-1.4l10.6,0.9l-8.5,4.4L25.2,58.7z M21.2,56.9l-3.1-2.4l10,3.7l-9.9,1.3L21.2,56.9z M17.7,53.8l-2.4-3.1   l8.7,6.2L16,58.1L17.7,53.8z M15,50l-1.4-3.6l6.9,8.1l-8.5-2L15,50z M13.2,45.8l-0.4-3.8l4.7,9.4l-7.5-5.3L13.2,45.8z M12.6,41.4   l0.6-3.8l2.3,10l-6-7.6L12.6,41.4z M13.1,36.9l1.6-3.5l-0.3,9.9l-3.9-9.1L13.1,36.9z M15.2,32.7l2.4-3l-2.9,9.1l-1.6-10.1   L15.2,32.7z M18.2,29.2l3.1-2.3l-5.2,7.7l0.7-10.3L18.2,29.2z M21.9,26.5l3.5-1.3l-7.1,5.8l3-10L21.9,26.5z"/>
</g>
</svg>