<?xml version="1.0" encoding="UTF-8"?>
<svg xmlns="http://www.w3.org/2000/svg" width="2500" height="2069" viewBox="0 0 110.3 91.3">
  <path style="fill:#0b3d91" d="M50.4 91.3c-1.8 0-3.6-.1-5.5-.3l.4-1.8c1.8.2 3.6.3 5.4.3 19.2 0 36.5-10.9 44.7-28.4-8.1 14.1-23.3 23.7-40.7 23.7C25 84.8 1.4 61.1 1.4 31.5c0-1.1 0-2.3.1-3.4C2.3 52.9 23.2 74 48.8 74c28.3 0 40.1-13.2 40.1-13.2-7.6 18.2-25.3 30.5-45.3 30.5H43l.1-1.6h.1c27.2 0 49.3-22.1 49.3-49.3 0-2.3-.2-4.7-.5-7-3-23-22.4-40.8-46.1-40.8-2 0-4 .1-5.9.4L39.4.2c2-.1 4-.2 6-.2C71.3 0 92.5 18.9 95.9 43.4c.4 2.6.6 5.2.6 7.9 0 25.7-20.9 46.6-46.7 46.6"/>
  <path style="fill:#0b3d91" d="M39.1 52.4s-1.6-1.5-2.2-4.2c-.6-2.6.6-5.4.6-5.4-4.4-1.1-8 .9-8 .9s1.2 3.2 3.8 5c2.6 1.9 5.8 3.7 5.8 3.7zM84.4 49.4c-.6 4.8-3 8.4-3 8.4s4.6-1.2 7.8-5.4c1.5-2 3.2-6 3.2-6s-7.1-1.9-8 3z"/>
  <path style="fill:#fc3d21" d="M16.5 58.6L16.4 62h.9L17 58.6h2.1l.4 3.3h.9l-.2-3.3h1.2l-.1 3.3h.9l.5-3.3h4.1l-.5 3.3h.9l.7-3.3h1.3l-.3 3.3h.9l.1-3.3h4.1l-.1 3.3h.9l.3-3.3H38l-.2 3.3h.9l.5-3.3h1.2l-.5 3.3h.9l.3-3.3h4l-.3 3.3h.9l.5-3.3h1.2l-.5 3.3h.9l.3-3.3h4.1l-.3 3.3h.9l.5-3.3h1.2l-.5 3.3h.9l.3-3.3h4.1l-.3 3.3h.9l.5-3.3h1.2l-.5 3.3h.9l.3-3.3h4l-.3 3.3h.9l.5-3.3h1.2l-.5 3.3h.9l.3-3.3h4.1l-.3 3.3h.9l.5-3.3h1.2l-.5 3.3h.9l.3-3.3h2.1l-.3 3.3h.9l.3-3.3 1.6.1L82 62h.9l-.1-3.4z"/>
  <path style="fill:none;stroke:#000;stroke-width:.75" d="M110.3 73.1H0"/>
  <g style="fill:#0b3d91">
    <path d="M21.7 75.4l-1.1 7.5 2.5.4 1.1-7.5-2.5-.4zM37.3 77.3l-2.6 7 2.4.9 2.6-7-2.4-.9zM54.3 82.3l-3.8 6.1 2.1 1.3 3.8-6.1-2.1-1.3zM32.4 76.3L29.5 83l2.3 1.1 2.9-6.7-2.3-1.1zM70.8 89.6l-4.9 4.9 1.7 1.7 4.9-4.9-1.7-1.7zM82.2 94.9l-5.5 4.1 1.4 1.9 5.5-4.1-1.4-1.9zM48.2 79.9l-3.3 6.4 2.2 1.2 3.3-6.4-2.2-1.2zM93.3 99.5L87 102.2l.9 2.2 6.3-2.7-.9-2.2zM60.1 85.4l-4.2 5.7 2 1.5 4.2-5.7-2-1.5zM102.9 103.1l-6.7 1.1.3 2.3 6.7-1.1-.3-2.3zM65.7 87.9l-4.5 5.5 1.8 1.6 4.5-5.5-1.8-1.6zM76.3 92.6l-5.2 4.8 1.6 1.8 5.2-4.8-1.6-1.8zM87.6 97.3l-5.9 3.7 1.3 2 5.9-3.7-1.3-2zM97.1 100.7l-6.5 2.2.7 2.2 6.5-2.2-.7-2.2zM26.8 75.8l-1.8 7.3 2.5.6 1.8-7.3-2.5-.6zM43.1 79.4L40.1 86l2.3 1 2.9-6.6-2.2-1z"/>
  </g>
</svg>