<?xml version="1.0" encoding="UTF-8"?>
<svg xmlns="http://www.w3.org/2000/svg" width="250" height="82" viewBox="0 0 250 82" fill="none">
  <path d="M101.683 22.2924H89.9646V59.7076H101.683V22.2924Z" fill="black"/>
  <path d="M118.736 59.7076V22.2924H107.017V59.7076H118.736Z" fill="black"/>
  <path d="M172.915 45.3149V22.2924H161.196V59.7076H172.915V45.3149Z" fill="black"/>
  <path d="M147.52 22.2924H135.802V59.7076H147.52V22.2924Z" fill="black"/>
  <path d="M45.9569 59.7075H57.6758V22.2923H45.9569V59.7075Z" fill="black"/>
  <path d="M19.1445 22.2924H7.42578V59.7076H19.1445V22.2924Z" fill="black"/>
  <path d="M205.233 22.2924H193.514V59.7076H205.233V22.2924Z" fill="black"/>
  <path d="M190.366 22.2924H178.647V59.7076H190.366V22.2924Z" fill="black"/>
  <path d="M224.871 59.7076V22.2924H213.152V59.7076H224.871Z" fill="black"/>
  <path d="M232.735 22.2924V59.7076H244.453V22.2924H232.735Z" fill="black"/>
  <path d="M85.5921 22.2924H73.873V59.7076H85.5921V22.2924Z" fill="black"/>
  <path d="M70.7285 22.2924H59.0098V59.7076H70.7285V22.2924Z" fill="black"/>
  <path d="M131.213 22.2924H119.494V59.7076H131.213V22.2924Z" fill="black"/>
  <path d="M158.056 22.2924H146.338V59.7076H158.056V22.2924Z" fill="black"/>
  <path d="M41.3745 22.2924H29.6558V59.7076H41.3745V22.2924Z" fill="black"/>
  <path d="M27.0191 22.2924H15.3003V59.7076H27.0191V22.2924Z" fill="black"/>
</svg>