<svg xmlns="http://www.w3.org/2000/svg" viewBox="0 0 128 128" width="128" height="128">
  <path fill="#049FD9" d="M65.4 94.1c-5.9 1.9-12.2 2.7-18.8 2.7C28.9 96.8 16 91.5 16 83.9V61.5c0 7.7 12.9 13 30.7 13 6.6 0 12.8-.9 18.7-2.7v22.3zm36.5-59.6c-7.4-2.2-16-3.3-25.9-3.3-9.9 0-18.4 1.2-25.9 3.3C38.4 39.3 32 46.5 32 55.3v4.3c0 12 15 21.8 33.4 21.8s33.4-9.8 33.4-21.8v-4.3c0-8.8-6.4-15.9-16.9-20.8zm-25.9.8c23 0 28.9 8.1 28.9 13.4 0 5.7-10.1 12.8-28.9 12.8-18.8 0-28.9-7.1-28.9-12.8 0-5.4 5.9-13.4 28.9-13.4zm26 29.7c-7 3-15.6 4.5-25.9 4.5s-18.9-1.5-25.9-4.5c-3.1-1.3-6.1-3.1-8.6-5.1v5.4c0 8.9 13.7 16.1 34.5 16.1s34.5-7.2 34.5-16.1v-5.4c-2.6 2-5.6 3.8-8.6 5.1zm-.1 17.3c-7 3-15.6 4.5-25.9 4.5s-18.9-1.5-25.9-4.5c-3.1-1.3-6.1-3-8.6-5.1v5.3c0 8.9 13.7 16.1 34.5 16.1s34.5-7.2 34.5-16.1v-5.3c-2.6 2.1-5.6 3.8-8.6 5.1zm-.1 17.3c-7 3-15.6 4.5-25.9 4.5s-18.9-1.5-25.9-4.5c-3.1-1.3-6.1-3.1-8.6-5.1v7.3c0 7.6 13 12.9 34.5 12.9s34.5-5.3 34.5-12.9v-7.3c-2.6 2-5.6 3.8-8.6 5.1z"/>
</svg>